<svg width="43" height="59" viewBox="0 0 43 59" fill="none" xmlns="http://www.w3.org/2000/svg">
<path d="M0 29.5751C0 23.8953 0.848351 18.841 2.54505 14.4122C4.26708 9.95844 6.95141 6.44296 10.5981 3.86578C14.2447 1.28859 18.8537 0 24.4249 0C28.2235 0 32.2373 0.487913 36.4664 1.46374C37.8339 2.26442 39.0241 3.10263 40.0371 3.97837C41.0754 4.82909 42.063 5.86747 43 7.09351C43 8.87002 42.7594 11.2345 42.2783 14.187C41.7971 17.1145 41.1893 19.8543 40.4549 22.4065C39.7459 24.9336 39.0621 26.5725 38.4037 27.3232C37.7453 27.6484 37.1882 27.8736 36.7323 27.9987C36.2765 28.0988 35.5674 28.1489 34.6051 28.1489C33.4149 28.1489 32.3006 28.0613 31.2624 27.8861C30.2241 27.711 29.439 27.4733 28.9072 27.173L27.5777 14.5248C25.7797 14.0244 23.2853 13.7742 20.0945 13.7742C19.2335 13.7742 18.6004 13.7867 18.1952 13.8117C17.1063 17.2646 16.4985 21.9061 16.3719 27.736C16.3466 28.4366 16.3339 29.5 16.3339 30.9262C16.3339 34.2791 16.5112 36.9939 16.8657 39.0706C17.1949 41.0223 17.5495 42.486 17.9293 43.4618C18.3092 44.4377 18.9676 45.1883 19.9046 45.7137C20.8669 46.2392 22.2977 46.5019 24.197 46.5019C26.7547 46.5019 29.1098 46.1391 31.2624 45.4135C33.4402 44.6629 35.808 43.5744 38.3657 42.1482C39.328 43.1741 40.0624 44.0123 40.5689 44.6629C41.1007 45.3134 41.5819 46.1141 42.0124 47.0649C42.4682 48.0157 42.7721 49.1041 42.924 50.3302C42.5188 51.1559 41.4426 52.2568 39.6952 53.633C37.9479 55.0091 35.6561 56.2477 32.8198 57.3486C29.9835 58.4495 26.8054 59 23.2853 59C15.0551 59 9.11661 56.4603 5.46996 51.381C1.82332 46.3017 0 39.0331 0 29.5751Z" fill="white"/>
</svg>
