<svg width="284" height="41" viewBox="0 0 284 41" fill="none" xmlns="http://www.w3.org/2000/svg">
<path d="M0 21.5541C0 17.8006 0.561845 14.4604 1.68553 11.5336C2.826 8.59024 4.60377 6.26699 7.01887 4.56382C9.43396 2.86066 12.4864 2.00907 16.1761 2.00907C18.6918 2.00907 21.3501 2.33152 24.1509 2.97641C25.0566 3.50555 25.8449 4.05949 26.5157 4.63823C27.2034 5.20044 27.8574 5.88667 28.478 6.69691C28.478 7.87094 28.3187 9.43355 28 11.3848C27.6813 13.3194 27.2788 15.1301 26.7925 16.8167C26.3229 18.4868 25.87 19.5699 25.434 20.0659C24.9979 20.2809 24.6289 20.4297 24.327 20.5124C24.0252 20.5785 23.5556 20.6116 22.9182 20.6116C22.13 20.6116 21.392 20.5537 20.7044 20.438C20.0168 20.3222 19.4969 20.1652 19.1447 19.9667L18.2642 11.608C17.0734 11.2773 15.4214 11.1119 13.3082 11.1119C12.7379 11.1119 12.3187 11.1202 12.0503 11.1367C11.3291 13.4186 10.9266 16.486 10.8428 20.3388C10.826 20.8018 10.8176 21.5045 10.8176 22.4471C10.8176 24.6628 10.935 26.4569 11.1698 27.8294C11.3878 29.1192 11.6226 30.0865 11.8742 30.7314C12.1258 31.3763 12.5618 31.8724 13.1824 32.2196C13.8197 32.5668 14.7673 32.7405 16.0252 32.7405C17.7191 32.7405 19.2788 32.5007 20.7044 32.0212C22.1467 31.5251 23.7149 30.8058 25.4088 29.8633C26.0461 30.5412 26.5325 31.0952 26.8679 31.5251C27.2201 31.955 27.5388 32.4842 27.8239 33.1125C28.1258 33.7409 28.327 34.4602 28.4277 35.2704C28.1593 35.8161 27.4465 36.5437 26.2893 37.4531C25.1321 38.3626 23.6143 39.1811 21.7358 39.9086C19.8574 40.6362 17.7526 41 15.4214 41C9.97065 41 6.03774 39.3216 3.62264 35.9649C1.20755 32.6082 0 27.8046 0 21.5541Z" fill="url(#paint0_linear_1_6)"/>
<path d="M39.0692 24.1585C40.0587 24.1585 41.1488 24.2577 42.3396 24.4561C43.5472 24.6546 44.6541 24.8943 45.6604 25.1754V24.4065C45.6604 23.8939 45.6436 23.3235 45.6101 22.6951C45.5933 22.0667 45.5597 21.6534 45.5094 21.4549C45.3585 21.1738 44.9224 20.8845 44.2013 20.5868C43.4969 20.2892 42.3396 20.1404 40.7296 20.1404C39.74 20.1404 38.717 20.2644 37.6604 20.5124C36.6205 20.7439 35.4633 21.0581 34.1887 21.4549C33.501 20.3305 32.9476 19.264 32.5283 18.2553C32.1258 17.2301 31.9245 16.2049 31.9245 15.1797C31.9245 14.8655 31.9497 14.5513 32 14.2371C34.717 12.1537 38.2306 11.1119 42.5409 11.1119C44.9224 11.1119 47.0356 11.3765 48.8805 11.9056C50.7254 12.4348 52.2432 13.46 53.434 14.9812C54.6247 16.5025 55.2201 18.6604 55.2201 21.4549C55.2201 24.1833 54.8931 26.829 54.239 29.392C53.6017 31.9385 53.2746 33.2365 53.2579 33.2861L56.9057 31.7483C57.392 32.2609 57.8197 32.8893 58.1887 33.6334C58.5744 34.361 58.8176 35.2043 58.9182 36.1633C58.6834 36.6594 58.1719 37.296 57.3836 38.0732C56.5954 38.8338 55.631 39.5118 54.4906 40.1071C53.3501 40.7024 52.1593 41 50.9182 41C49.5262 41 48.4696 40.5949 47.7484 39.7846C47.044 38.9744 46.6918 37.9244 46.6918 36.6346C46.6918 35.907 46.8008 35.1712 47.0189 34.4271L46.2641 34.2039C45.7945 36.8165 44.7966 38.6023 43.2704 39.5614C41.7442 40.5205 40.0587 41 38.2138 41C37.0063 41 35.8407 40.6693 34.717 40.0079C33.5933 39.3299 32.6792 38.3543 31.9748 37.0811C31.2704 35.7913 30.9182 34.2865 30.9182 32.5668C30.9182 29.8219 31.6143 27.7385 33.0063 26.3164C34.3983 24.8778 36.4193 24.1585 39.0692 24.1585ZM41.9371 33.6086C42.3564 33.5259 42.8512 33.2944 43.4214 32.9141C44.0084 32.5338 44.5283 32.079 44.9811 31.5499C45.434 31.0208 45.7023 30.5164 45.7862 30.0369L45.6352 29.4416C44.7463 29.3259 43.7987 29.268 42.7925 29.268C41.9371 29.268 41.3501 29.3341 41.0314 29.4664C40.4948 30.0617 40.2264 30.7231 40.2264 31.4507C40.2264 31.9798 40.3606 32.4594 40.6289 32.8893C40.914 33.3192 41.3501 33.559 41.9371 33.6086Z" fill="url(#paint1_linear_1_6)"/>
<path d="M59.4969 8.0611C59.2453 7.05243 59.0776 6.21738 58.9937 5.55596C58.9099 4.878 58.8763 4.10083 58.8931 3.22444C59.2453 2.77798 59.7904 2.33152 60.5283 1.88506C61.283 1.42206 62.1551 1.03347 63.1447 0.719298C64.1509 0.405122 65.1908 0.248034 66.2641 0.248034C68.3606 0.248034 69.9706 0.768905 71.0943 1.81065C72.218 2.85239 72.7799 4.3902 72.7799 6.42408C72.7799 7.87921 72.6541 10.219 72.4025 13.4434C72.1509 16.6679 71.7904 20.099 71.3208 23.7368C70.8512 27.3581 70.3145 30.5247 69.7107 33.2365L69.761 33.2861L73.4843 31.7483C74.7925 32.8562 75.5556 34.3279 75.7736 36.1633C75.7736 36.2791 75.3962 36.7586 74.6415 37.6019C73.8868 38.4287 72.8889 39.2059 71.6478 39.9335C70.4235 40.6445 69.0147 41 67.4214 41C65.761 41 64.4109 40.5453 63.3711 39.6358C62.348 38.7264 61.8616 37.172 61.9119 34.9728L61.9623 30.5082C61.979 26.2751 62.021 22.4636 62.088 19.0738C62.1719 15.684 62.3396 12.1867 62.5912 8.58197L59.4969 8.0611Z" fill="url(#paint2_linear_1_6)"/>
<path d="M77.6604 26.0932C77.6604 23.2325 78.1467 20.6778 79.1195 18.4289C80.0922 16.1801 81.5933 14.4025 83.6226 13.0962C85.6688 11.7733 88.218 11.1119 91.2704 11.1119C92.3103 11.1119 93.501 11.1781 94.8428 11.3103C96.2013 11.4261 97.501 11.608 98.7421 11.856L99.2453 12.2033C100 12.7159 100.553 13.1293 100.906 13.4434C101.275 13.7411 101.66 14.1627 102.063 14.7084C102.063 15.6013 101.937 16.8332 101.686 18.4041C101.451 19.9585 101.149 21.4053 100.78 22.7447C100.411 24.0841 100.059 24.9439 99.7233 25.3243C99.1698 25.6054 98.2725 25.7459 97.0314 25.7459C96.4277 25.7459 95.8574 25.7046 95.3208 25.6219C94.8008 25.5227 94.4067 25.3987 94.1384 25.2498L93.6101 20.6612C93.3585 20.3801 92.7799 20.1569 91.8742 19.9915C90.9853 19.8096 90.1635 19.7187 89.4088 19.7187C89.174 19.7187 88.956 19.7352 88.7547 19.7683C88.369 20.5455 88.0755 21.5376 87.8742 22.7447C87.673 23.9518 87.5723 25.1837 87.5723 26.4404C87.5723 28.2593 87.8742 29.8054 88.478 31.0786C89.0818 32.3353 90.3145 32.9637 92.1761 32.9637C93.0985 32.9637 94.0042 32.8149 94.8931 32.5172C95.7987 32.2196 96.9392 31.7649 98.3145 31.1531C98.8847 30.8885 99.3124 30.6983 99.5975 30.5826C100.268 31.244 100.797 31.9385 101.182 32.6661C101.568 33.3936 101.82 34.3279 101.937 35.4688C100.864 36.709 99.3543 37.9409 97.4088 39.1645C95.4801 40.3882 93.2243 41 90.6415 41C87.891 41 85.5346 40.3468 83.5723 39.0405C81.6268 37.7177 80.1509 35.9318 79.1447 33.683C78.1551 31.4176 77.6604 28.8877 77.6604 26.0932Z" fill="url(#paint3_linear_1_6)"/>
<path d="M104.855 19.1234C104.57 17.9163 104.386 17.0317 104.302 16.4694C104.218 15.9072 104.176 15.0557 104.176 13.9147C105.166 12.9887 106.231 12.2942 107.371 11.8312C108.512 11.3517 109.795 11.1119 111.22 11.1119C115.547 11.1119 117.711 13.2533 117.711 17.536C117.711 18.677 117.602 19.9998 117.384 21.5045C117.182 23.0093 116.889 24.9026 116.503 27.1845C116.453 27.4822 116.319 28.2841 116.101 29.5904C115.883 30.8968 115.732 31.9881 115.648 32.8645C115.933 33.1621 116.285 33.3688 116.704 33.4846C116.906 33.4846 117.367 33.0795 118.088 32.2692C118.826 31.4424 119.614 30.442 120.453 29.268C121.291 28.094 121.979 27.0109 122.516 26.0188C122.65 23.6542 122.834 21.4797 123.069 19.4955L120.428 18.9746C120.21 18.1478 120.059 17.4202 119.975 16.7919C119.891 16.1635 119.849 15.4938 119.849 14.7828L119.874 14.0883C120.478 13.3277 121.384 12.6415 122.591 12.0296C123.799 11.4178 125.182 11.1119 126.742 11.1119C131.069 11.1119 133.233 13.2533 133.233 17.536C133.233 19.2722 132.939 21.5624 132.352 24.4065C131.765 27.2341 131.078 30.0948 130.289 32.9885L133.182 31.7483C133.669 32.2609 134.096 32.8893 134.465 33.6334C134.851 34.361 135.094 35.2043 135.195 36.1633C134.96 36.6594 134.449 37.296 133.66 38.0732C132.872 38.8338 131.908 39.5118 130.767 40.1071C129.627 40.7024 128.436 41 127.195 41C125.803 41 124.73 40.5949 123.975 39.7846C123.237 38.9579 122.868 37.9078 122.868 36.6346C122.868 36.3039 122.952 35.6259 123.119 34.6007C123.304 33.5755 123.455 32.8645 123.572 32.4676L122.868 32.2444C122.029 35.1381 120.872 37.3208 119.396 38.7925C117.937 40.2642 116.268 41 114.39 41C111.69 41 109.786 40.1236 108.679 38.3708C107.572 36.6015 107.019 34.4106 107.019 31.7979C107.019 26.8869 107.187 22.786 107.522 19.4955L104.855 19.1234Z" fill="url(#paint4_linear_1_6)"/>
<path d="M136.629 8.0611C136.377 7.05243 136.21 6.21738 136.126 5.55596C136.042 4.878 136.008 4.10083 136.025 3.22444C136.377 2.77798 136.922 2.33152 137.66 1.88506C138.415 1.42206 139.287 1.03347 140.277 0.719298C141.283 0.405122 142.323 0.248034 143.396 0.248034C145.493 0.248034 147.103 0.768905 148.226 1.81065C149.35 2.85239 149.912 4.3902 149.912 6.42408C149.912 7.87921 149.786 10.219 149.535 13.4434C149.283 16.6679 148.922 20.099 148.453 23.7368C147.983 27.3581 147.447 30.5247 146.843 33.2365L146.893 33.2861L150.616 31.7483C151.925 32.8562 152.688 34.3279 152.906 36.1633C152.906 36.2791 152.528 36.7586 151.774 37.6019C151.019 38.4287 150.021 39.2059 148.78 39.9335C147.556 40.6445 146.147 41 144.553 41C142.893 41 141.543 40.5453 140.503 39.6358C139.48 38.7264 138.994 37.172 139.044 34.9728L139.094 30.5082C139.111 26.2751 139.153 22.4636 139.22 19.0738C139.304 15.684 139.472 12.1867 139.723 8.58197L136.629 8.0611Z" fill="url(#paint5_linear_1_6)"/>
<path d="M163.044 24.1585C164.034 24.1585 165.124 24.2577 166.314 24.4561C167.522 24.6546 168.629 24.8943 169.635 25.1754V24.4065C169.635 23.8939 169.618 23.3235 169.585 22.6951C169.568 22.0667 169.535 21.6534 169.484 21.4549C169.333 21.1738 168.897 20.8845 168.176 20.5868C167.472 20.2892 166.314 20.1404 164.704 20.1404C163.715 20.1404 162.692 20.2644 161.635 20.5124C160.595 20.7439 159.438 21.0581 158.164 21.4549C157.476 20.3305 156.922 19.264 156.503 18.2553C156.101 17.2301 155.899 16.2049 155.899 15.1797C155.899 14.8655 155.925 14.5513 155.975 14.2371C158.692 12.1537 162.205 11.1119 166.516 11.1119C168.897 11.1119 171.01 11.3765 172.855 11.9056C174.7 12.4348 176.218 13.46 177.409 14.9812C178.6 16.5025 179.195 18.6604 179.195 21.4549C179.195 24.1833 178.868 26.829 178.214 29.392C177.577 31.9385 177.249 33.2365 177.233 33.2861L180.88 31.7483C181.367 32.2609 181.795 32.8893 182.164 33.6334C182.549 34.361 182.792 35.2043 182.893 36.1633C182.658 36.6594 182.147 37.296 181.358 38.0732C180.57 38.8338 179.606 39.5118 178.465 40.1071C177.325 40.7024 176.134 41 174.893 41C173.501 41 172.444 40.5949 171.723 39.7846C171.019 38.9744 170.667 37.9244 170.667 36.6346C170.667 35.907 170.776 35.1712 170.994 34.4271L170.239 34.2039C169.769 36.8165 168.771 38.6023 167.245 39.5614C165.719 40.5205 164.034 41 162.189 41C160.981 41 159.816 40.6693 158.692 40.0079C157.568 39.3299 156.654 38.3543 155.95 37.0811C155.245 35.7913 154.893 34.2865 154.893 32.5668C154.893 29.8219 155.589 27.7385 156.981 26.3164C158.373 24.8778 160.394 24.1585 163.044 24.1585ZM165.912 33.6086C166.331 33.5259 166.826 33.2944 167.396 32.9141C167.983 32.5338 168.503 32.079 168.956 31.5499C169.409 31.0208 169.677 30.5164 169.761 30.0369L169.61 29.4416C168.721 29.3259 167.774 29.268 166.767 29.268C165.912 29.268 165.325 29.3341 165.006 29.4664C164.47 30.0617 164.201 30.7231 164.201 31.4507C164.201 31.9798 164.335 32.4594 164.604 32.8893C164.889 33.3192 165.325 33.559 165.912 33.6086Z" fill="url(#paint6_linear_1_6)"/>
<path d="M186.189 26.8125C186.189 24.1172 186.231 21.6616 186.314 19.4459L183.572 18.9746C183.354 18.1478 183.203 17.4202 183.119 16.7919C183.036 16.1635 182.994 15.4938 182.994 14.7828L183.044 14.2868C183.094 14.0553 183.119 13.8651 183.119 13.7163L186.767 12.9226C186.851 11.8974 187.044 10.7399 187.346 9.45009C187.648 8.16031 187.966 7.20952 188.302 6.5977C188.839 6.20085 189.484 5.90321 190.239 5.70478C190.994 5.50635 191.807 5.40714 192.679 5.40714C193.417 5.40714 194.13 5.48155 194.818 5.63037C195.522 5.76265 196.134 5.94455 196.654 6.17604C196.704 6.73825 196.73 7.38314 196.73 8.11071C196.73 9.30127 196.671 10.6489 196.553 12.1537L200.981 11.36C201.602 12.4182 201.912 13.5675 201.912 14.8076C201.912 15.6675 201.803 16.4446 201.585 17.1391C201.384 17.8336 201.099 18.6191 200.73 19.4955C199.623 19.6774 198.105 19.7931 196.176 19.8427C195.941 22.538 195.421 26.4983 194.616 31.7235L194.491 32.5668L194.541 32.6165L200.453 30.8058C201.677 31.8145 202.423 33.3688 202.692 35.4688C202.692 35.5846 202.147 36.1303 201.057 37.1059C199.983 38.0649 198.633 38.9579 197.006 39.7846C195.379 40.5949 193.61 41 191.698 41C188.361 41 186.583 38.9909 186.365 34.9728C186.247 32.9389 186.189 30.2188 186.189 26.8125Z" fill="url(#paint7_linear_1_6)"/>
<path d="M205.56 4.91107C205.56 3.45594 206.038 2.27364 206.994 1.36419C207.966 0.454729 209.509 0 211.623 0C213.736 0 215.27 0.454729 216.226 1.36419C217.199 2.27364 217.686 3.45594 217.686 4.91107C217.686 5.73785 217.392 6.49849 216.805 7.19298C216.235 7.88748 215.48 8.44142 214.541 8.85481C213.602 9.25166 212.629 9.45009 211.623 9.45009C210.532 9.45009 209.518 9.21859 208.579 8.7556C207.656 8.27606 206.918 7.68078 206.365 6.96975C205.828 6.25872 205.56 5.57249 205.56 4.91107ZM204.327 19.0986C204.109 18.2884 203.958 17.5525 203.874 16.8911C203.79 16.2131 203.748 15.5104 203.748 14.7828L203.774 14.0883C204.126 13.6419 204.671 13.1954 205.409 12.7489C206.164 12.2859 207.036 11.8974 208.025 11.5832C209.031 11.269 210.071 11.1119 211.145 11.1119C213.493 11.1119 215.161 11.6328 216.151 12.6745C217.14 13.7163 217.635 15.3368 217.635 17.536C217.635 18.8588 217.442 20.5868 217.057 22.7199C216.688 24.853 216.235 26.9282 215.698 28.9456C215.178 30.9464 214.725 32.3767 214.34 33.2365L214.39 33.2861L218.113 31.9468C218.784 32.509 219.287 33.1291 219.623 33.807C219.975 34.485 220.201 35.2704 220.302 36.1633C220.302 36.2791 219.933 36.7586 219.195 37.6019C218.457 38.4287 217.476 39.2059 216.252 39.9335C215.044 40.6445 213.644 41 212.05 41C210.44 41 209.132 40.5701 208.126 39.7102C207.136 38.8504 206.642 37.3787 206.642 35.2952C206.642 32.8645 206.709 30.2849 206.843 27.5566C206.977 24.8282 207.187 22.1825 207.472 19.6195L204.327 19.0986Z" fill="url(#paint8_linear_1_6)"/>
<path d="M222.415 25.8451C222.415 22.8522 222.901 20.2561 223.874 18.0569C224.847 15.8576 226.34 14.1545 228.352 12.9474C230.365 11.7237 232.889 11.1119 235.925 11.1119C239.279 11.1119 241.912 11.732 243.824 12.9722C245.736 14.1958 247.069 15.899 247.824 18.0817C248.595 20.2644 248.981 22.9349 248.981 26.0932C248.981 28.9538 248.47 31.5086 247.447 33.7574C246.44 35.9897 244.914 37.759 242.868 39.0653C240.839 40.3551 238.348 41 235.396 41C230.834 41 227.53 39.6193 225.484 36.8578C223.438 34.0799 222.415 30.409 222.415 25.8451ZM236.428 33.7326C237.283 33.7326 237.803 33.6665 237.987 33.5342C238.373 32.8728 238.667 31.9385 238.868 30.7314C239.069 29.5243 239.17 28.218 239.17 26.8125C239.17 25.5227 239.086 24.3156 238.918 23.1912C238.751 22.0502 238.516 21.1573 238.214 20.5124C238.029 20.2974 237.66 20.1404 237.107 20.0411C236.553 19.9254 235.95 19.8675 235.296 19.8675C234.44 19.8675 233.853 19.9585 233.535 20.1404C232.696 21.5624 232.277 23.5384 232.277 26.0684C232.277 27.2589 232.369 28.4743 232.553 29.7145C232.738 30.9546 232.973 32.079 233.258 33.0877C233.459 33.3027 233.87 33.468 234.491 33.5838C235.111 33.683 235.757 33.7326 236.428 33.7326Z" fill="url(#paint9_linear_1_6)"/>
<path d="M254.767 31.8724C254.767 29.1771 254.801 27.1432 254.868 25.7707C254.935 24.3817 255.111 22.3479 255.396 19.6691L252.478 19.297C252.126 18.2222 251.891 17.2632 251.774 16.4198C251.673 15.5765 251.623 14.4852 251.623 13.1458C251.891 12.9143 252.335 12.6415 252.956 12.3273C253.593 11.9966 254.348 11.7155 255.22 11.484C256.092 11.2359 256.973 11.1119 257.862 11.1119C259.891 11.1119 261.325 11.5418 262.164 12.4017C263.019 13.2615 263.447 14.5513 263.447 16.271C263.447 17.2301 263.304 18.5281 263.019 20.1652C262.549 22.7943 262.314 24.175 262.314 24.3073C262.314 24.39 262.373 24.4727 262.491 24.5554C262.608 24.6215 262.734 24.6546 262.868 24.6546C263.019 24.6546 263.119 24.5967 263.17 24.4809C263.841 21.8518 264.512 19.6526 265.182 17.8832C265.853 16.1139 266.868 14.5431 268.226 13.1706C269.585 11.7981 271.346 11.1119 273.509 11.1119C276.193 11.1119 278.122 11.9222 279.296 13.5426C280.47 15.1466 281.057 17.1722 281.057 19.6195C281.057 21.8022 280.797 23.9105 280.277 25.9443C279.757 27.9617 279.111 30.07 278.34 32.2692C278.373 32.1865 278.256 32.509 277.987 33.2365L278.038 33.2861L281.711 31.7979C283.019 32.9058 283.782 34.3775 284 36.2129C284 36.3287 283.623 36.8 282.868 37.6267C282.13 38.4535 281.149 39.2224 279.925 39.9335C278.7 40.6445 277.291 41 275.698 41C274.105 41 272.805 40.5783 271.799 39.735C270.792 38.8917 270.289 37.4531 270.289 35.4192C270.289 33.7987 270.356 31.6326 270.491 28.9207C270.625 26.2089 270.759 24.0262 270.893 22.3727C270.457 21.9097 269.92 21.6616 269.283 21.6286C268.696 22.3727 267.832 23.8609 266.692 26.0932C265.551 28.3255 264.746 29.9956 264.277 31.1034C264.243 31.3349 264.226 31.5582 264.226 31.7731C264.226 32.5999 264.352 33.7161 264.604 35.1216C264.855 36.5106 265.166 37.8086 265.535 39.0157C265.233 39.5779 264.612 40.0492 263.673 40.4295C262.734 40.8098 261.577 41 260.201 41C258.96 41 257.962 40.9008 257.208 40.7024C256.47 40.5039 255.95 40.2972 255.648 40.0823C255.346 39.8508 255.195 39.7102 255.195 39.6606C255.178 39.5118 255.136 39.1232 255.069 38.4949C255.002 37.85 254.935 36.957 254.868 35.8161C254.801 34.6586 254.767 33.344 254.767 31.8724Z" fill="url(#paint10_linear_1_6)"/>
<defs>
<linearGradient id="paint0_linear_1_6" x1="0" y1="0" x2="284" y2="41" gradientUnits="userSpaceOnUse">
<stop stop-color="#3EC091"/>
<stop offset="1" stop-color="#13AFC5"/>
</linearGradient>
<linearGradient id="paint1_linear_1_6" x1="0" y1="0" x2="284" y2="41" gradientUnits="userSpaceOnUse">
<stop stop-color="#3EC091"/>
<stop offset="1" stop-color="#13AFC5"/>
</linearGradient>
<linearGradient id="paint2_linear_1_6" x1="0" y1="0" x2="284" y2="41" gradientUnits="userSpaceOnUse">
<stop stop-color="#3EC091"/>
<stop offset="1" stop-color="#13AFC5"/>
</linearGradient>
<linearGradient id="paint3_linear_1_6" x1="0" y1="0" x2="284" y2="41" gradientUnits="userSpaceOnUse">
<stop stop-color="#3EC091"/>
<stop offset="1" stop-color="#13AFC5"/>
</linearGradient>
<linearGradient id="paint4_linear_1_6" x1="0" y1="0" x2="284" y2="41" gradientUnits="userSpaceOnUse">
<stop stop-color="#3EC091"/>
<stop offset="1" stop-color="#13AFC5"/>
</linearGradient>
<linearGradient id="paint5_linear_1_6" x1="0" y1="0" x2="284" y2="41" gradientUnits="userSpaceOnUse">
<stop stop-color="#3EC091"/>
<stop offset="1" stop-color="#13AFC5"/>
</linearGradient>
<linearGradient id="paint6_linear_1_6" x1="0" y1="0" x2="284" y2="41" gradientUnits="userSpaceOnUse">
<stop stop-color="#3EC091"/>
<stop offset="1" stop-color="#13AFC5"/>
</linearGradient>
<linearGradient id="paint7_linear_1_6" x1="0" y1="0" x2="284" y2="41" gradientUnits="userSpaceOnUse">
<stop stop-color="#3EC091"/>
<stop offset="1" stop-color="#13AFC5"/>
</linearGradient>
<linearGradient id="paint8_linear_1_6" x1="0" y1="0" x2="284" y2="41" gradientUnits="userSpaceOnUse">
<stop stop-color="#3EC091"/>
<stop offset="1" stop-color="#13AFC5"/>
</linearGradient>
<linearGradient id="paint9_linear_1_6" x1="0" y1="0" x2="284" y2="41" gradientUnits="userSpaceOnUse">
<stop stop-color="#3EC091"/>
<stop offset="1" stop-color="#13AFC5"/>
</linearGradient>
<linearGradient id="paint10_linear_1_6" x1="0" y1="0" x2="284" y2="41" gradientUnits="userSpaceOnUse">
<stop stop-color="#3EC091"/>
<stop offset="1" stop-color="#13AFC5"/>
</linearGradient>
</defs>
</svg>
